<svg xmlns="http://www.w3.org/2000/svg" viewBox="0 0 512 512" style="width:32px;height:32px"><path d="M165.628 461.127l1.838-1.839 194.742-194.742 2.019-2.019 2.019-2.019 103.182-103.182a.048.048 0 000-.067L354.259 42.092a.048.048 0 00-.067 0L251.01 145.274l-2.019 2.019-2.019 2.019L50.401 345.884a.041.041 0 00-.012.02L.002 511.459a.047.047 0 00.059.059l163.079-49.633 2.488-.758zm-128.894 13.6l25.159-82.666a.047.047 0 01.078-.02l57.507 57.507a.047.047 0 01-.02.078l-82.666 25.16a.046.046 0 01-.058-.059zm465.664-370.295c12.803-12.804 12.803-33.754 0-46.558l-47.791-47.792c-12.804-12.803-33.754-12.803-46.558 0l-23.862 23.862a.048.048 0 000 .067l94.282 94.282a.048.048 0 00.067 0l23.862-23.861z" fill="#4b4b4b"/></svg>